<svg id="_410_breakfast_outline" data-name="#410_breakfast_outline" xmlns="http://www.w3.org/2000/svg" viewBox="0 0 400 300" width="406" height="306" class="illustration styles_illustrationTablet__1DWOa"><path d="M309.88,77.92s-11.3-3.2-16.4,25.45c-5,28.19,4.17,55.23,4.17,55.23h12.23Z" fill="#fff"></path><path d="M309.88,159.6H297.65a1,1,0,0,1-.95-.68c-.09-.27-9.21-27.61-4.2-55.73,2.91-16.39,7.94-22.6,11.65-24.91a7.92,7.92,0,0,1,6-1.33,1,1,0,0,1,.73,1V158.6A1,1,0,0,1,309.88,159.6Zm-11.5-2h10.5V78.81A6.92,6.92,0,0,0,305.11,80c-3.33,2.14-7.88,8-10.65,23.51C290,128.71,297,153.25,298.38,157.6Z" fill="#093f68"></path><path d="M302.15,222.19h0a7.73,7.73,0,0,1-7.73-8l3.23-55.63h12.23v55.86A7.73,7.73,0,0,1,302.15,222.19Z" fill="#68e1fd"></path><path d="M302.15,223.19a8.73,8.73,0,0,1-8.73-9l3.23-55.66a1,1,0,0,1,1-.94h12.23a1,1,0,0,1,1,1v55.86A8.74,8.74,0,0,1,302.15,223.19Zm-3.56-63.59-3.17,54.69a6.73,6.73,0,1,0,13.46.17V159.6Z" fill="#093f68"></path><path d="M112,77.54h0a2.72,2.72,0,0,0-2.72,2.71V100h-3.88V80.25a2.71,2.71,0,0,0-2.71-2.71h-.54a2.72,2.72,0,0,0-2.72,2.71V100H95.55V80.25a2.72,2.72,0,0,0-2.72-2.71h0a2.71,2.71,0,0,0-2.71,2.71v27.64a7.61,7.61,0,0,0,7.37,7.6l-2.87,98.06c-.12,4.88,3.4,8.91,7.79,8.91s7.91-4,7.79-8.91l-2.87-98.06a7.61,7.61,0,0,0,7.37-7.6V80.25A2.72,2.72,0,0,0,112,77.54Z" fill="#68e1fd"></path><path d="M102.41,223.46a8.35,8.35,0,0,1-6-2.59,10.15,10.15,0,0,1-2.8-7.34l2.84-97.13a8.56,8.56,0,0,1-7.34-8.51V80.25a3.72,3.72,0,0,1,7.43,0V99h1.87V80.25a3.72,3.72,0,0,1,3.72-3.71h.54a3.72,3.72,0,0,1,3.71,3.71V99h1.88V80.25a3.72,3.72,0,0,1,7.43,0v27.64a8.57,8.57,0,0,1-7.35,8.51l2.85,97.12a10.2,10.2,0,0,1-2.8,7.35A8.36,8.36,0,0,1,102.41,223.46ZM92.83,78.54a1.72,1.72,0,0,0-1.71,1.71v27.64a6.57,6.57,0,0,0,6.4,6.6,1,1,0,0,1,1,1l-2.87,98.06a8.16,8.16,0,0,0,2.23,5.89,6.22,6.22,0,0,0,9.12,0,8.21,8.21,0,0,0,2.23-5.9l-2.87-98a1,1,0,0,1,1-1,6.57,6.57,0,0,0,6.41-6.6V80.25a1.72,1.72,0,0,0-3.43,0V100a1,1,0,0,1-1,1h-3.88a1,1,0,0,1-1-1V80.25a1.72,1.72,0,0,0-1.71-1.71h-.54a1.72,1.72,0,0,0-1.72,1.71V100a1,1,0,0,1-1,1H95.55a1,1,0,0,1-1-1V80.25A1.72,1.72,0,0,0,92.83,78.54Z" fill="#093f68"></path><circle cx="200" cy="150" r="80.53" fill="#68e1fd"></circle><path d="M200,231.53A81.53,81.53,0,1,1,281.53,150,81.63,81.63,0,0,1,200,231.53Zm0-161.06A79.53,79.53,0,1,0,279.53,150,79.62,79.62,0,0,0,200,70.47Z" fill="#093f68"></path><path d="M200,216.21A66.21,66.21,0,1,1,266.21,150,66.28,66.28,0,0,1,200,216.21Zm0-130.42A64.21,64.21,0,1,0,264.21,150,64.28,64.28,0,0,0,200,85.79Z" fill="#093f68"></path><path d="M215.55,137.11c.78-9.88-5-19.4-14.52-22.49-3.51-1.13-7.26-1.63-10.52-3.36-5.54-3-8.91-9.05-14.55-11.81-4-2-8.67-2-13-1-7.69,1.8-15.47,6.23-20.25,12.62-6.23,8.32-4.12,22-3.63,31.76.42,8.52,2.39,18.15,9,24.14,6.79,6.18,17.39,6.7,25.39,2.68a70.89,70.89,0,0,0,7.92-5,36.92,36.92,0,0,1,8.28-4.56c5.16-1.84,10.86-2.09,15.52-5.22A24.07,24.07,0,0,0,215.55,137.11Z" fill="#fff"></path><path d="M162.5,173.27a22.42,22.42,0,0,1-15.12-5.53c-5.59-5.09-8.72-13.45-9.29-24.83-.07-1.39-.18-2.86-.28-4.39-.65-9.18-1.45-20.6,4.11-28,4.62-6.17,12.4-11,20.83-13,3.55-.83,8.81-1.33,13.65,1,3,1.49,5.44,3.88,7.75,6.2a30,30,0,0,0,6.83,5.63,30.2,30.2,0,0,0,6.68,2.27c1.21.31,2.46.63,3.68,1,9.8,3.16,16,12.83,15.21,23.52h0a24.86,24.86,0,0,1-10.82,18.52c-3.16,2.13-6.75,3-10.23,3.82a52.43,52.43,0,0,0-5.52,1.53,36.49,36.49,0,0,0-8,4.43l-1.22.84a57.25,57.25,0,0,1-6.81,4.24A25.33,25.33,0,0,1,162.5,173.27Zm6-74.45a23.25,23.25,0,0,0-5.26.63c-8,1.87-15.34,6.44-19.68,12.24-5.11,6.83-4.34,17.84-3.72,26.69.11,1.54.21,3,.28,4.43.55,10.84,3.46,18.73,8.65,23.45,6.14,5.59,16.12,6.63,24.27,2.53a58,58,0,0,0,6.58-4.11l1.22-.84a38.31,38.31,0,0,1,8.51-4.67,57.53,57.53,0,0,1,5.73-1.59c3.45-.82,6.71-1.6,9.57-3.52a23.2,23.2,0,0,0,9.94-17c.77-9.76-4.91-18.58-13.82-21.46-1.16-.37-2.39-.68-3.57-1a31.57,31.57,0,0,1-7.12-2.44,32,32,0,0,1-7.3-6c-2.3-2.31-4.48-4.48-7.22-5.82A15.93,15.93,0,0,0,168.46,98.82Zm47.09,38.29h0Z" fill="#093f68"></path><circle cx="172.36" cy="134.92" r="16.33" fill="#ffbc0e"></circle><path d="M172.36,152.25a17.34,17.34,0,1,1,17.33-17.33A17.35,17.35,0,0,1,172.36,152.25Zm0-32.67a15.34,15.34,0,1,0,15.33,15.34A15.36,15.36,0,0,0,172.36,119.58Z" fill="#093f68"></path><path d="M181.47,140.19a1,1,0,0,1-.3-.05,1,1,0,0,1-.65-1.26,12.31,12.31,0,0,0-2.14-11.57,1,1,0,0,1,.06-1.42,1,1,0,0,1,1.41.06,14.2,14.2,0,0,1,2.57,13.54A1,1,0,0,1,181.47,140.19Z" fill="#fff"></path><path d="M261.44,127.26v31a2.63,2.63,0,0,1-2.62,2.62H224.38a2.63,2.63,0,0,1-2.62-2.62v-31a5,5,0,0,1,5-5,5,5,0,0,1-5-4.94c0-2.54-.38-8.44,19.84-8.44s19.84,7.16,19.84,8.44a5,5,0,0,1-4.95,4.94A5,5,0,0,1,261.44,127.26Z" fill="#fff"></path><path d="M258.82,161.9H224.38a3.63,3.63,0,0,1-3.62-3.62v-31a6,6,0,0,1,2.65-4.94,6.25,6.25,0,0,1-.9-.73,5.91,5.91,0,0,1-1.75-4.21v-.13a6.49,6.49,0,0,1,1.84-5.07c2.84-2.85,9.06-4.24,19-4.24,9.47,0,15.81,1.56,18.86,4.62a6.39,6.39,0,0,1,2,4.76,6,6,0,0,1-2.65,5,5.92,5.92,0,0,1,2.65,4.94v31A3.62,3.62,0,0,1,258.82,161.9Zm-31.11-39.59a1,1,0,0,1-1,1,4,4,0,0,0-4,3.94v31a1.63,1.63,0,0,0,1.62,1.62h34.44a1.63,1.63,0,0,0,1.62-1.62v-31a4,4,0,0,0-3.95-3.94,1,1,0,0,1,0-2,4,4,0,0,0,3.95-3.94,4.41,4.41,0,0,0-1.39-3.41c-1.83-1.84-6.35-4-17.45-4-9.25,0-15.17,1.23-17.58,3.65a4.57,4.57,0,0,0-1.26,3.65v.14a3.94,3.94,0,0,0,4,3.94A1,1,0,0,1,227.71,122.31Z" fill="#093f68"></path><path d="M240.38,128.81a1,1,0,0,1-.56-1.83l4-2.68a1,1,0,0,1,1.39.28,1,1,0,0,1-.27,1.38l-4,2.68A1,1,0,0,1,240.38,128.81Z" fill="#dfeaef"></path><path d="M252.41,137.87a1,1,0,0,1-.69-.28l-4.08-3.9a1,1,0,1,1,1.38-1.44l4.08,3.89a1,1,0,0,1,0,1.42A1,1,0,0,1,252.41,137.87Z" fill="#dfeaef"></path><path d="M238.87,142.3a1,1,0,0,1-.55-.17,1,1,0,0,1-.29-1.38l3-4.59a1,1,0,1,1,1.67,1.09l-3,4.59A1,1,0,0,1,238.87,142.3Z" fill="#dfeaef"></path><path d="M252.45,152.74a1,1,0,0,1-.87-.51l-2.75-4.93a1,1,0,1,1,1.75-1l2.74,4.92a1,1,0,0,1-.39,1.36A.94.94,0,0,1,252.45,152.74Z" fill="#dfeaef"></path><path d="M236.38,149.08a.62.62,0,0,1-.19,0l-6.7-1.26a1,1,0,1,1,.37-2l6.7,1.27a1,1,0,0,1-.18,2Z" fill="#dfeaef"></path><path d="M229.74,132.43a1,1,0,0,1-.62-.2,1,1,0,0,1,.73-1.82,24.56,24.56,0,0,0,3.59-1.59,1,1,0,0,1,.92,1.78C231.53,132.06,230.34,132.43,229.74,132.43Zm.49-1.86Z" fill="#dfeaef"></path><path d="M237.88,118.46a1,1,0,0,1-.44-.1l-4-2a1,1,0,0,1,.88-1.8l4,2a1,1,0,0,1,.45,1.34A1,1,0,0,1,237.88,118.46Z" fill="#dfeaef"></path><path d="M251.07,121.14a1,1,0,0,1-.49-.14,1,1,0,0,1-.37-1.36l2.11-3.66a1,1,0,1,1,1.73,1l-2.11,3.66A1,1,0,0,1,251.07,121.14Z" fill="#dfeaef"></path><path d="M238.63,154.83a1,1,0,0,1-.42-1.91l3.5-1.59a1,1,0,1,1,.83,1.82l-3.5,1.59A1,1,0,0,1,238.63,154.83Z" fill="#dfeaef"></path><rect x="207.13" y="145.84" width="12.11" height="59.97" rx="6.05" transform="translate(37.37 389.01) rotate(-90)" fill="#f56132"></rect><path d="M237.12,182.88H189.25a7.06,7.06,0,0,1,0-14.11h47.87a7.06,7.06,0,0,1,0,14.11Zm-47.87-12.11a5.06,5.06,0,0,0,0,10.11h47.87a5.06,5.06,0,0,0,0-10.11Z" fill="#093f68"></path><path d="M201.78,179.55a1,1,0,0,1-.7-.29l-8.14-8.08a1,1,0,0,1,0-1.41,1,1,0,0,1,1.42,0l8.14,8.08a1,1,0,0,1,0,1.41A1,1,0,0,1,201.78,179.55Z" fill="#093f68"></path><path d="M210.71,179.55a1,1,0,0,1-.71-.29l-8.14-8.08a1,1,0,0,1,1.41-1.42l8.14,8.08a1,1,0,0,1-.7,1.71Z" fill="#093f68"></path><path d="M219.63,179.55a1,1,0,0,1-.7-.29l-8.14-8.08a1,1,0,0,1,0-1.41,1,1,0,0,1,1.42,0l8.14,8.08a1,1,0,0,1,0,1.41A1,1,0,0,1,219.63,179.55Z" fill="#093f68"></path><path d="M228.56,179.55a1,1,0,0,1-.7-.29l-8.15-8.08a1,1,0,0,1,1.41-1.42l8.14,8.08a1,1,0,0,1-.7,1.71Z" fill="#093f68"></path><rect x="205.44" y="163.07" width="12.11" height="59.97" rx="6.05" transform="translate(18.43 404.55) rotate(-90)" fill="#f56132"></rect><path d="M235.42,200.11H187.56a7.05,7.05,0,0,1,0-14.1h47.86a7.05,7.05,0,1,1,0,14.1ZM187.56,188a5.05,5.05,0,0,0,0,10.1h47.86a5.05,5.05,0,1,0,0-10.1Z" fill="#093f68"></path><path d="M200.09,196.78a1,1,0,0,1-.71-.29l-8.14-8.07a1,1,0,0,1,1.41-1.42l8.14,8.07a1,1,0,0,1,0,1.42A1,1,0,0,1,200.09,196.78Z" fill="#093f68"></path><path d="M209,196.78a1,1,0,0,1-.7-.29l-8.14-8.07a1,1,0,0,1,0-1.41,1,1,0,0,1,1.42,0l8.14,8.07a1,1,0,0,1-.71,1.71Z" fill="#093f68"></path><path d="M217.94,196.78a.94.94,0,0,1-.7-.29l-8.15-8.07A1,1,0,0,1,210.5,187l8.14,8.07a1,1,0,0,1,0,1.42A1,1,0,0,1,217.94,196.78Z" fill="#093f68"></path><path d="M226.86,196.78a1,1,0,0,1-.7-.29L218,188.42a1,1,0,0,1,0-1.41,1,1,0,0,1,1.42,0l8.14,8.07a1,1,0,0,1-.71,1.71Z" fill="#093f68"></path><path d="M211.77,93.58a6.15,6.15,0,0,0-4.57,3,7.62,7.62,0,0,0-1.35,5.07,5,5,0,0,0,3.06,4.07c2.09.76,4.41-.27,6.19-1.61l3.27,4.23,2.49-1.63a.78.78,0,0,0,.39-.43.81.81,0,0,0-.21-.6L218.36,102c.67.93,2.58-2.76,2.63-3.12a7.26,7.26,0,0,0-1.5-4.75C216.87,90.55,215.15,93.42,211.77,93.58Z" fill="#70cc40"></path><path d="M218.37,109.37a1,1,0,0,1-.79-.38l-2.69-3.48c-2.23,1.44-4.44,1.86-6.31,1.19a6,6,0,0,1-3.72-4.89,8.54,8.54,0,0,1,1.51-5.75,7.06,7.06,0,0,1,5.36-3.48,8.22,8.22,0,0,0,2.58-.65c1.78-.66,3.78-1.4,6,1.6A8.13,8.13,0,0,1,222,99a10.09,10.09,0,0,1-2,3.44l1.91,2.65a1.73,1.73,0,0,1,.38,1.41,1.7,1.7,0,0,1-.82,1l-2.5,1.64A1,1,0,0,1,218.37,109.37Zm-3.28-6.23a1,1,0,0,1,.8.39l2.7,3.5,1.47-1-2.51-3.49h0a1,1,0,0,1,.23-1.4,1,1,0,0,1,.8-.16,11.09,11.09,0,0,0,1.45-2.4,6.47,6.47,0,0,0-1.34-3.91c-1.31-1.78-2-1.52-3.68-.9a10.3,10.3,0,0,1-3.19.77h0A5.18,5.18,0,0,0,208,97.16a6.58,6.58,0,0,0-1.2,4.39,4,4,0,0,0,2.41,3.26c1.95.7,4.12-.62,5.24-1.47A1,1,0,0,1,215.09,103.14Zm4.08-1.73Zm-7.4-7.83h0Z" fill="#093f68"></path><path d="M193.57,92.18a6.14,6.14,0,0,0-4.57,3,7.62,7.62,0,0,0-1.35,5.07,5,5,0,0,0,3.06,4.08c2.09.75,4.41-.27,6.19-1.62l3.27,4.24,2.49-1.64a.78.78,0,0,0,.39-.43.82.82,0,0,0-.21-.6l-2.68-3.71c.67.93,2.58-2.77,2.63-3.13a7.26,7.26,0,0,0-1.5-4.75C198.67,89.15,197,92,193.57,92.18Z" fill="#70cc40"></path><path d="M200.17,108a1,1,0,0,1-.79-.39l-2.69-3.48c-2.23,1.44-4.44,1.86-6.31,1.19a5.94,5.94,0,0,1-3.72-4.89,8.55,8.55,0,0,1,1.51-5.75,7,7,0,0,1,5.35-3.47h0a8.79,8.79,0,0,0,2.59-.65c1.78-.66,3.78-1.41,6,1.59a8.13,8.13,0,0,1,1.68,5.5,10.11,10.11,0,0,1-2,3.45l1.91,2.65a1.75,1.75,0,0,1,.38,1.4,1.72,1.72,0,0,1-.82,1l-2.5,1.63A.89.89,0,0,1,200.17,108Zm-3.28-6.24a1,1,0,0,1,.8.39l2.7,3.5,1.47-1-2.51-3.49h0a1,1,0,0,1,.22-1.4,1,1,0,0,1,.81-.16,10.86,10.86,0,0,0,1.45-2.4,6.42,6.42,0,0,0-1.34-3.9c-1.31-1.79-2-1.53-3.68-.91a10,10,0,0,1-3.19.78h0a5.17,5.17,0,0,0-3.79,2.57,6.65,6.65,0,0,0-1.19,4.4,4,4,0,0,0,2.41,3.26c1.95.7,4.12-.62,5.24-1.47A1,1,0,0,1,196.89,101.73Zm-3.32-9.55h0Z" fill="#093f68"></path></svg>