<svg xmlns="http://www.w3.org/2000/svg" xmlns:xlink="http://www.w3.org/1999/xlink" viewBox="0 0 400 300" width="406" height="306" class="illustration styles_illustrationTablet__1DWOa"><defs><linearGradient id="linear-gradient" x1="214.75" y1="244.34" x2="194.48" y2="258.53" gradientUnits="userSpaceOnUse"><stop offset="0" stop-color="#d4a397"></stop><stop offset="1" stop-color="#fff"></stop></linearGradient><linearGradient id="linear-gradient-2" x1="74.11" y1="152.85" x2="49.33" y2="166.59" xlink:href="#linear-gradient"></linearGradient><linearGradient id="linear-gradient-3" x1="199.54" y1="156.73" x2="156.19" y2="210.92" xlink:href="#linear-gradient"></linearGradient></defs><title>PP</title><g style="isolation: isolate;"><g id="Layer_2" data-name="Layer 2"><path d="M198.49,274.57,26,172.62c-5.49-3.08-10.2-8.15-4.85-11.46L194.27,61.39c2.6-1.61,6.54-2.66,9.18-1.13L384.52,165.35c5.49,3.19,6.48,12.1,1,15.29L221.23,274.41A22.94,22.94,0,0,1,198.49,274.57Z" fill="#c8c8cc"></path><path d="M232.39,243.61l-1.12-12-56.45,29,13.4,8.1C205.13,258.78,215,252.68,232.39,243.61Z" fill="url(#linear-gradient)" style="mix-blend-mode: multiply;"></path><path d="M104.52,144.93l-21-4.32-56,28.26,17,10.27C61.37,169.15,87.09,154,104.52,144.93Z" fill="url(#linear-gradient-2)" style="mix-blend-mode: multiply;"></path><polyline points="121.2 164.53 75.26 187.09 177.1 246.13 267.19 197.14" fill="url(#linear-gradient-3)" style="mix-blend-mode: multiply;"></polyline><path d="M161.7,104.32C131.24,119.64,69.17,150.13,61,154.23a2.64,2.64,0,0,0-1,3.92c1.81,2.43,5.45,5.47,12,4.41,9.69-1.56,84.58-49.81,92.46-53.85C162.86,107,163.16,106.23,161.7,104.32Z" fill="#9b8b81"></path><path d="M161.7,104.32a4.82,4.82,0,0,1,1.55-3.66C165,99,176.69,91.12,179.38,88.6s12.31-11.53,13.09-11.53,1.3.35.87,1-21.5,19.16-21.24,19.94.17,1.21,1.13.87S194.9,79.58,194.9,79.58s1.39-.43,1.3,1l-20.81,19.86s-.43,1.39.78,1S197,82.62,197,82.62s1.13-.69,1.56-.26,0,1.47,0,1.47L178.6,102.21s-.78,1-.09,1.3,1.7-.43,1.7-.43l19.71-17.78s1-1.3,1.39-.78a1.32,1.32,0,0,1,0,1.73c-.43.52-19.65,18.47-19.65,18.47s-5.5,4.77-8.36,5.72-7.33-.79-8.78-1.74" fill="#9b8b81"></path><ellipse cx="203.98" cy="167.87" rx="85.86" ry="44.17" fill="#68e1fd"></ellipse><ellipse cx="203.98" cy="167.87" rx="85.86" ry="44.17" fill="#093e3e" opacity="0.29"></ellipse><ellipse cx="203.98" cy="162.73" rx="85.86" ry="44.17" fill="#68e1fd"></ellipse><ellipse cx="205.34" cy="162.73" rx="58.07" ry="27.38" fill="#093e3e" opacity="0.29"></ellipse><path d="M237.06,144.58c-.31-.82-.61-1.64-.91-2.46l5.48-.25a49.24,49.24,0,0,0,4.79,9.58A114.35,114.35,0,0,0,259,171.75a44.46,44.46,0,0,0,3.2,4.13c2.7,5.91,10.24,10.44,2.05,10.65-5.37.13-8.52-2.16-10.61-3.17q-4-8.22-7.59-16.59C243.26,159.29,240.2,151.92,237.06,144.58Z" fill="#99ce45"></path><path d="M231.27,142.34l2.52-.12,1.12,2.59,15,41.43c-.58,4.85,1.58,12.84-3.61,9.36-4.39-2.94-4.64-8.68-6.35-10q-1.69-5.83-3-11.73C235.69,163.31,233.52,152.81,231.27,142.34Z" fill="#99ce45"></path><path d="M226.87,144.25c0-.57,0-1.14-.07-1.71l2.31-.11a1,1,0,0,0-.39.94l6.62,45.12c-2.8,4-2.24,8.19-4.66,1.89-1.69-4.4-2.09-7.37-3.34-8.56q0-18.37-.07-36.74A1,1,0,0,0,226.87,144.25Z" fill="#99ce45"></path><path d="M244.47,141.74l1,0a.88.88,0,0,0,.27,1.34c7,4.14,13,10,20.46,13.22A7,7,0,0,0,267,158c3.71,5.9,6.62,7.45,2.84,10.85-2.53,2.27-6.12.86-7.72,1.68-6.68-8.31-11.94-17.6-16.95-27C244.92,142.9,244.7,142.32,244.47,141.74Z" fill="#99ce45"></path><path d="M250.8,141.45s16.81-1.72,18.84,5.92c1,3.73-.5,4.94-1.85,5.88-6.85-3.82-13.64-7.74-20.45-11.65Z" fill="#99ce45"></path><path d="M223,143.25l.21-.54.42,0-.36.77A1.09,1.09,0,0,0,223,143.25Z" fill="#99ce45"></path><path d="M224.87,144.91c.05.78.09,1.57.15,2.35a144.69,144.69,0,0,1-7.57,36.49c-1.35-.09-1.82-1.26-1.89-4-.13-5,5.27-11.84,1.24-12.88,1.73-3.72,2.58-7.83,3.94-11.7C222,151.67,223.36,148.27,224.87,144.91Z" fill="#99ce45"></path><path d="M221.08,182.07a1,1,0,0,0,.15.68l-.83.32c.25-.59.52-1.17.76-1.77Z" fill="#99ce45"></path><path d="M245.69,143a.88.88,0,0,1-.27-1.34l1.92-.09c6.8,3.91,13.6,7.83,20.45,11.65-1.1.77-2.11,1.37-1.64,3C258.68,153,252.69,147.17,245.69,143Z" fill="#88b72c"></path><path d="M246.41,151.45a49.24,49.24,0,0,1-4.79-9.58l2.85-.13c.23.58.45,1.17.68,1.75,5,9.43,10.27,18.72,16.95,27-.8.41-1.1,1.37-.53,3.61a10.47,10.47,0,0,0,.63,1.76,44.46,44.46,0,0,1-3.2-4.13A114.35,114.35,0,0,1,246.41,151.45Z" fill="#88b72c"></path><path d="M233.79,142.22l2.35-.11c.31.82.61,1.64.91,2.46,3.14,7.34,6.21,14.72,9,22.19q3.64,8.36,7.59,16.59c-1.41-.68-2.34-.78-3.15.83a6.32,6.32,0,0,0-.54,2.06l-15-41.43Z" fill="#88b72c"></path><path d="M229.11,142.44l2.15-.1c2.25,10.47,4.42,21,5.69,31.58q1.35,5.91,3,11.73c-.64-.48-1.48-.34-2.81.81a10.93,10.93,0,0,0-1.82,2l-6.62-45.12A1,1,0,0,1,229.11,142.44Z" fill="#88b72c"></path><path d="M222.54,142.74l.66,0-.21.54a1.09,1.09,0,0,1,.27.21l.36-.77,3.18-.15c0,.57,0,1.14.07,1.71a1,1,0,0,1,.4.84q0,18.37.07,36.74c-.86-.81-2.11-.79-4.45.22l-1.66.7a1,1,0,0,1-.15-.68l.08-.76c-.24.59-.5,1.18-.76,1.77a7.78,7.78,0,0,1-3,.69A144.69,144.69,0,0,0,225,147.27c-.07-.78-.1-1.57-.15-2.35-1.51,3.35-2.91,6.76-4.13,10.24-1.36,3.87-2.21,8-3.94,11.7l-.18,0C212.24,165.92,222.54,142.74,222.54,142.74Z" fill="#88b72c"></path><path d="M329.89,199.08a39.41,39.41,0,0,0,7.31-6.75,26.2,26.2,0,0,0,5.75-14.79L205,246.91a2.17,2.17,0,0,0-.79,3.23c1.49,2,4.49,4.5,9.88,3.63,8.62-1.39,48.37-30.58,50-30,1.17.39,8,1.92,11.94,2.79a7.68,7.68,0,0,0,5.36-.77L328.29,200Z" fill="#9b8b81"></path><path d="M329.89,197a39.41,39.41,0,0,0,7.31-6.75,26.2,26.2,0,0,0,5.75-14.79L205,244.86a2.17,2.17,0,0,0-.79,3.23c1.49,2,4.49,4.5,9.88,3.63,8.62-1.39,48.37-30.58,50-30,1.17.39,8,1.92,11.94,2.79a7.68,7.68,0,0,0,5.36-.77l46.86-25.79Z" fill="#e5e5e5"></path><polygon points="300.59 196.78 324.06 200.25 315.03 205.22 292.21 201 300.59 196.78" fill="#f4f4f4"></polygon><polygon points="305.56 194.29 328.29 197.92 329.89 197.03 307.27 193.43 305.56 194.29" fill="#f4f4f4"></polygon><polygon points="277.78 208.26 301.12 212.87 297.6 214.81 274 210.16 277.78 208.26" fill="#f4f4f4"></polygon><polygon points="265.45 214.46 288.27 219.94 286.66 220.83 263.84 215.27 265.45 214.46" fill="#f4f4f4"></polygon><path d="M159.42,102.94C129,118.27,66.89,148.75,58.73,152.85a2.64,2.64,0,0,0-1,3.92c1.81,2.43,5.45,5.47,12,4.41,9.69-1.56,84.58-49.81,92.46-53.85C160.57,105.61,160.88,104.86,159.42,102.94Z" fill="#e5e5e5"></path><path d="M159.42,102.94A4.82,4.82,0,0,1,161,99.28c1.73-1.65,13.44-9.54,16.13-12.05S189.4,75.7,190.18,75.7s1.3.35.87,1-21.5,19.16-21.24,19.94.17,1.21,1.13.87,21.68-19.34,21.68-19.34,1.39-.43,1.3,1L173.1,99s-.43,1.39.78,1,20.81-18.73,20.81-18.73,1.13-.69,1.56-.26,0,1.47,0,1.47l-19.94,18.38s-.78,1-.09,1.3,1.7-.43,1.7-.43l19.71-17.78s1-1.3,1.39-.78a1.32,1.32,0,0,1,0,1.73c-.43.52-19.65,18.47-19.65,18.47s-5.5,4.77-8.36,5.72-7.33-.79-8.78-1.74" fill="#e5e5e5"></path><polygon points="117.13 123.99 131.49 126.1 123.38 131.1 108.36 128.32 117.13 123.99" fill="#f4f4f4"></polygon><polygon points="122.06 121.55 135.42 123.68 136.88 122.77 123.79 120.69 122.06 121.55" fill="#f4f4f4"></polygon><polygon points="93.51 135.56 110.6 138.94 107.26 140.91 89.83 137.48 93.51 135.56" fill="#f4f4f4"></polygon><polygon points="80.6 142.04 98.28 146.24 97 147.02 79.25 142.7 80.6 142.04" fill="#f4f4f4"></polygon><circle cx="160.74" cy="143.58" r="6.36" fill="#e91837"></circle><path d="M164.73,142a4.44,4.44,0,0,0-2.49-3.16,1,1,0,0,0-1.37.36,1,1,0,0,0,.36,1.37,2.6,2.6,0,0,1,1.57,2,1,1,0,0,0,1.23.7A1,1,0,0,0,164.73,142Z" fill="#fff"></path><path d="M163.47,144.32a1,1,0,0,0,0,2A1,1,0,0,0,163.47,144.32Z" fill="#fff"></path><circle cx="156.14" cy="150.42" r="6.36" fill="#e91837"></circle><path d="M160.12,148.82a4.44,4.44,0,0,0-2.49-3.16,1,1,0,0,0-1.37.36,1,1,0,0,0,.36,1.37,2.6,2.6,0,0,1,1.57,2,1,1,0,0,0,1.23.7A1,1,0,0,0,160.12,148.82Z" fill="#fff"></path><path d="M158.87,151.15a1,1,0,0,0,0,2A1,1,0,0,0,158.87,151.15Z" fill="#fff"></path><polygon points="154.38 169.9 154.38 161.19 233.65 150.42 240.08 152.51 255.47 156.05 255.47 163.7 249.17 163.05 235.75 162.11 187.75 163.77 154.38 169.9" fill="#7f3604"></polygon><path d="M214,173.83a57.43,57.43,0,0,1,9.24-.23c9,.53,18.84,3.43,27-2.19,16-11.07-8.77-24.17-17.7-27.14a90.15,90.15,0,0,0-39.08-3.77,72.19,72.19,0,0,0-11.82,2.45c-30.58,9.17-34.08,31.89-17,38,10,3.58,20.34.54,30-2.65A92.55,92.55,0,0,1,214,173.83Z" fill="#7f3604"></path><path d="M214,167.28a57.43,57.43,0,0,1,9.24-.23c9,.53,18.84,3.43,27-2.19,16-11.07-8.77-24.17-17.7-27.14a90.15,90.15,0,0,0-39.08-3.77,72.19,72.19,0,0,0-11.82,2.45c-30.58,9.17-34.08,31.89-17,38,10,3.58,20.34.54,30-2.65A92.55,92.55,0,0,1,214,167.28Z" fill="#934715"></path><path d="M242.24,160l-5.34-15.37c-.7-2-3.94-1.15-3.23.89L239,160.85C239.72,162.88,243,162,242.24,160Z" fill="#7f3604"></path><path d="M228.86,160q-3.31-9.4-7.33-18.51c-.87-2-3.75-.27-2.89,1.69q3.84,8.72,7,17.71C226.34,162.9,229.57,162,228.86,160Z" fill="#7f3604"></path><path d="M215.2,160.75q-4.51-12.31-8.37-24.84c-.63-2.05-3.87-1.18-3.23.89q3.86,12.53,8.37,24.84C212.71,163.65,215.95,162.78,215.2,160.75Z" fill="#7f3604"></path><path d="M201.79,161.87a152.87,152.87,0,0,1-7.69-23.45c-.5-2.1-3.74-1.21-3.23.89a152.88,152.88,0,0,0,7.69,23.45C199.38,164.72,202.62,163.86,201.79,161.87Z" fill="#7f3604"></path><path d="M191.23,161a167.88,167.88,0,0,1-6.51-19.1,1.68,1.68,0,0,0-3.23.89,167.88,167.88,0,0,0,6.51,19.1C188.81,163.83,192,163,191.23,161Z" fill="#7f3604"></path><path d="M182.09,166.32q-4.46-9.56-8.22-19.41c-.76-2-4-1.13-3.23.89q3.92,10.26,8.56,20.21C180.11,170,183,168.26,182.09,166.32Z" fill="#7f3604"></path><path d="M170.38,164.26a69,69,0,0,1-3.41-8.7c-.65-2-3.88-1.17-3.23.89a75.52,75.52,0,0,0,3.75,9.5C168.41,167.9,171.3,166.2,170.38,164.26Z" fill="#7f3604"></path></g></g></svg>